#define desk_toggled_width 13
#define desk_toggled_height 13
static unsigned char desk_toggled_bits[] = {
 0x00, 0x00, 0x00, 0x00, 0x00, 0x00, 0x00, 0x00, 0xF0, 0x01, 0x10, 0x01,
 0x10, 0x01, 0x10, 0x01, 0xF0, 0x01, 0x00, 0x00, 0x00, 0x00, 0x00, 0x00,
 0x00, 0x00 };
