#define bullet_width 20
#define bullet_height 20
static unsigned char bullet_bits[] = {
   0x00, 0x00, 0x00, 0x00, 0x00, 0x00, 0x00, 0x00, 0x00, 0x00, 0x00, 0x00,
   0x08, 0x00, 0x00, 0x18, 0x00, 0x00, 0x30, 0x00, 0x00, 0x70, 0x00, 0x00,
   0xe0, 0x00, 0x00, 0xe0, 0x01, 0x00, 0xe0, 0x03, 0x00, 0xe0, 0x01, 0x00,
   0xe0, 0x00, 0x00, 0x70, 0x00, 0x00, 0x30, 0x00, 0x00, 0x18, 0x00, 0x00,
   0x08, 0x00, 0x00, 0x00, 0x00, 0x00, 0x00, 0x00, 0x00, 0x00, 0x00, 0x00 };
