#define close_width 15
#define close_height 15
static unsigned char close_bits[] = {
   0xe0, 0x03, 0xf8, 0x0f, 0xfc, 0x1f, 0xfe, 0x3f, 0xee, 0x3b, 0xdf, 0x7d,
   0xbf, 0x7e, 0x7f, 0x7f, 0xbf, 0x7e, 0xdf, 0x7d, 0xee, 0x3b, 0xfe, 0x3f,
   0xfc, 0x1f, 0xf8, 0x0f, 0xe0, 0x03 };
