#define bullet_width 16
#define bullet_height 16
static unsigned char bullet_bits[] = {
 0x00, 0x00, 0x00, 0x00, 0x00, 0x00, 0x20, 0x00, 0x40, 0x00, 0x80, 0x00,
 0x00, 0x01, 0x00, 0x02, 0x00, 0x02, 0x00, 0x01, 0x80, 0x00, 0x40, 0x00,
 0x20, 0x00, 0x00, 0x00, 0x00, 0x00, 0x00, 0x00 };
