#define desk_width 16
#define desk_height 16
static unsigned char desk_bits[] = {
 0x00, 0x00, 0x00, 0x00, 0x00, 0x00, 0x00, 0x00, 0x00, 0x04, 0x00, 0x0E,
 0x00, 0x07, 0xE0, 0x03, 0xC0, 0x01, 0xC0, 0x01, 0x20, 0x01, 0x10, 0x00,
 0x00, 0x00, 0x00, 0x00, 0x00, 0x00, 0x00, 0x00 };
