#define iconify_width 16
#define iconify_height 16
static unsigned char iconify_bits[] = {
 0x00, 0x00, 0x00, 0x00, 0x00, 0x00, 0x00, 0x00, 0x00, 0x00, 0x00, 0x00,
 0x00, 0x00, 0x00, 0x00, 0x00, 0x00, 0x00, 0x00, 0x00, 0x00, 0xF0, 0x0F,
 0x00, 0x00, 0x00, 0x00, 0x00, 0x00, 0x00, 0x00 };
