#define max_width 16
#define max_height 16
static unsigned char max_bits[] = {
 0x00, 0x00, 0x00, 0x00, 0x00, 0x00, 0x00, 0x00, 0xF0, 0x0F, 0x10, 0x08,
 0x10, 0x08, 0x10, 0x08, 0x10, 0x08, 0x10, 0x08, 0x10, 0x08, 0xF0, 0x0F,
 0x00, 0x00, 0x00, 0x00, 0x00, 0x00, 0x00, 0x00 };
