#define max_toggled_width 16
#define max_toggled_height 16
static unsigned char max_toggled_bits[] = {
 0x00, 0x00, 0x00, 0x00, 0x00, 0x00, 0x80, 0x1F, 0x00, 0x10, 0xF8, 0x17,
 0x08, 0x14, 0x08, 0x14, 0x08, 0x14, 0x08, 0x14, 0x08, 0x04, 0x08, 0x04,
 0xF8, 0x07, 0x00, 0x00, 0x00, 0x00, 0x00, 0x00 };
