#define close_width 13
#define close_height 13
static unsigned char close_bits[] = {
 0x00, 0x00, 0x00, 0x00, 0x04, 0x04, 0x08, 0x02, 0x10, 0x01, 0xA0, 0x00,
 0x40, 0x00, 0xA0, 0x00, 0x10, 0x01, 0x08, 0x02, 0x04, 0x04, 0x00, 0x00,
 0x00, 0x00 };
