#define max_width 13
#define max_height 13
static unsigned char max_bits[] = {
 0x00, 0x00, 0x00, 0x00, 0xFC, 0x07, 0x04, 0x04, 0x04, 0x04, 0x04, 0x04,
 0x04, 0x04, 0x04, 0x04, 0x04, 0x04, 0x04, 0x04, 0xFC, 0x07, 0x00, 0x00,
 0x00, 0x00 };
