#define shade_toggled_width 13
#define shade_toggled_height 13
static unsigned char shade_toggled_bits[] = {
   0x40, 0x00, 0x40, 0x00, 0x40, 0x00, 0x40, 0x00, 0x40, 0x00, 0x40, 0x00,
   0x40, 0x00, 0xfc, 0x07, 0xf8, 0x03, 0xf0, 0x01, 0xe0, 0x00, 0x40, 0x00,
   0x00, 0x00 };
