#define bullet_width 16
#define bullet_height 16
static unsigned char bullet_bits[] = {
 0x00, 0x00, 0x00, 0x00, 0x00, 0x00, 0x20, 0x00, 0x60, 0x00, 0xE0, 0x00,
 0xE0, 0x01, 0xE0, 0x03, 0xE0, 0x03, 0xE0, 0x01, 0xE0, 0x00, 0x60, 0x00,
 0x20, 0x00, 0x00, 0x00, 0x00, 0x00, 0x00, 0x00 };
