#define shade_toggled_width 10
#define shade_toggled_height 10
static unsigned char shade_toggled_bits[] = {
   0xff, 0x03, 0xff, 0x03, 0x01, 0x02, 0x31, 0x02, 0x31, 0x02, 0xfd, 0x02,
   0x79, 0x02, 0x31, 0x02, 0x01, 0x02, 0xff, 0x03 };
