#define close_hover_width 16
#define close_hover_height 16
static unsigned char close_hover_bits[] = {
   0xff, 0xff, 0xff, 0xff, 0xff, 0xff, 0xe7, 0xf9, 0xc7, 0xf8, 0x0f, 0xfc,
   0x1f, 0xfe, 0x1f, 0xfe, 0x0f, 0xfc, 0xc7, 0xf8, 0xe7, 0xf9, 0xff, 0xff,
   0xff, 0xff, 0xff, 0xff, 0xff, 0xff, 0xff, 0xff };
