#define max_toggled_width 13
#define max_toggled_height 13
static unsigned char max_toggled_bits[] = {
 0x00, 0x00, 0x00, 0x00, 0xF0, 0x07, 0x00, 0x04, 0xFC, 0x05, 0x04, 0x05,
 0x04, 0x05, 0x04, 0x05, 0x04, 0x05, 0x04, 0x01, 0xFC, 0x01, 0x00, 0x00,
 0x00, 0x00 };
